<svg xmlns="http://www.w3.org/2000/svg" xmlns:xlink="http://www.w3.org/1999/xlink" width="1785.348" height="1313.451" viewBox="0 0 1785.348 1313.451">
  <defs>
    <clipPath id="clip-path">
      <rect id="Rectangle_184" data-name="Rectangle 184" width="1785.348" height="1313.451" fill="none"/>
    </clipPath>
  </defs>
  <g id="Group_10" data-name="Group 10" clip-path="url(#clip-path)">
    <path id="Path_13" data-name="Path 13" d="M1139.443,137.6a5.393,5.393,0,0,0-1.821,2.4L757.546,7.044a5.422,5.422,0,1,0-9.865,1.093l-236.761,147.8c-.094-.14-.179-.283-.281-.42A10.836,10.836,0,0,0,495.5,153.17a10.678,10.678,0,0,0-4.254,7.381L215.627,132.883a5.429,5.429,0,1,0-7.37,4.7L137.125,340.935,24.156,396.483a5.426,5.426,0,1,0-9.14,5.795,5.39,5.39,0,0,0,3.942,2.158L5.484,712.567a5.43,5.43,0,1,0,5.358,4.992l85.08-9.715,22.567,90.815a8.967,8.967,0,0,0-3.079,1.463,9.049,9.049,0,0,0,8.174,15.888l65.984,193.216a5.427,5.427,0,1,0,5.193,9.419,5.379,5.379,0,0,0,1.873-2.516l209.837,70.488a5.449,5.449,0,0,0,7.49,6.449l106.513,210.214a5.672,5.672,0,0,0-.618.365,5.435,5.435,0,1,0,7.989,1.786l282.265-166.7,131.849,137.841a5.425,5.425,0,1,0,8.56,1.07l199.915-125.476,430.745,141.909a5.44,5.44,0,1,0,7.123-3.473l186.483-544.484a8.032,8.032,0,0,0,7.3-1.153,8.178,8.178,0,0,0-9.716-13.156,7.919,7.919,0,0,0-2.208,2.519L1553.13,616.437a5.421,5.421,0,1,0-10.236-2.922L1300.715,599.38a5.393,5.393,0,0,0-7.773-5.008L1235.4,485.284a5.059,5.059,0,0,0,.535-.32,5.437,5.437,0,1,0-8.506-5.581l-83.313-16.025a4.521,4.521,0,0,0-.751-3.061,3.853,3.853,0,0,0-2.9-1.694l-.383-.023a3.669,3.669,0,0,0-2.2.819,4.332,4.332,0,0,0-1.551,3.444l-95.085,5.492,100-321.144a5.433,5.433,0,0,0,1.19.184l.385.019a5.372,5.372,0,0,0,3.079-1.056,5.434,5.434,0,0,0-6.462-8.739M751.054,10.689a5.426,5.426,0,0,0,2.35.069L859.923,470.085a8.815,8.815,0,0,0-4.44,2.651L666.092,305.954Zm539.882,591.8a5.349,5.349,0,0,0,1.868,1.571l-32.857,69.032-296.741,61a5.317,5.317,0,0,0-.184-.576l327.325-132.05a5.4,5.4,0,0,0,.589,1.025m7.6,1.136a5.379,5.379,0,0,0,1.925-2.679l129.129,37.274L1260.419,673l32.735-68.772a5.41,5.41,0,0,0,5.381-.6M1037,1009.539l-31.835,94.364-54.833-18.066.673-30.321,82.816-48.912a6.306,6.306,0,0,0,.38.722,5.639,5.639,0,0,0,2.8,2.214m-844.575-.616L209.3,893.115l65.8,63.5-79.269,54.352a5.4,5.4,0,0,0-3.4-2.043M125.095,799.452l49.668-100.611,63.509-7.251-8.782,60.281-100.946,50.9a8.064,8.064,0,0,0-.449-.754,8.95,8.95,0,0,0-3-2.567M585.163,587.206l48.606-168.93L739.79,624.385a5.847,5.847,0,0,0-.589.35,5.324,5.324,0,0,0-1.976,2.98L588.815,593.328a5.388,5.388,0,0,0-3.652-6.122M1043.55,997.591a5.691,5.691,0,0,0-5.85-.873L959.682,740.59a5.325,5.325,0,0,0,1.417-.754c.1-.074.168-.162.257-.24l151.677,172.077Zm69.743-85.625,43.236,49.053-111.047,39.664a6.348,6.348,0,0,0-.817-1.878,5.863,5.863,0,0,0-.813-.977ZM683.21,994.536a10.925,10.925,0,0,0-2.139-6.486c-.176-.238-.367-.462-.557-.68L815.788,864.6,857.646,998.62Zm174.557,4.471,19.614,62.8L682.758,997.689a10.909,10.909,0,0,0,.45-2.77ZM367.3,747.942a5.427,5.427,0,0,0,2.2-4.527L600.114,728.69c.011.112.033.223.047.336l-375.9,61.421,1.5-10.3,133.126-35.014a5.335,5.335,0,0,0,.815,1.669,5.434,5.434,0,0,0,7.6,1.144m2.16-4.911a5.386,5.386,0,0,0-7.417-4.487l-.354.15a5.147,5.147,0,0,0-.85.5,5.43,5.43,0,0,0-2.065,5.566L225.82,779.733l4.021-27.613,145.548-73.391A7.971,7.971,0,0,0,387.35,681.5a7.939,7.939,0,0,0,2.981-4.544l209.936,48.922a8.937,8.937,0,0,0-.208,2.422ZM267.226,525.584a8.285,8.285,0,0,0,1.28-.76l108.907,143.73a7.951,7.951,0,0,0-1.285,1.3L255.212,577.985l7.537-51.729a7.991,7.991,0,0,0,4.118-.538Zm1.139-13.969,42.066-62.933,27.477,86.512-66.241-15.348a7.993,7.993,0,0,0-3.3-8.23M495.757,170.743,380.928,342.525l-19.076-23.5L494.86,170.029a10.442,10.442,0,0,0,.9.714m.32.213a10.9,10.9,0,0,0,3.357,1.5L442.192,418l-61.008-75.16Zm-115.372,171.9-70.15,104.947L293.848,395.2l67.745-75.886Zm.255.314,61.12,75.3L410.927,552.112l-72.585-16.819-27.636-87.018ZM796.724,656.1l-24.7,67.105-27.791-88.979a5.241,5.241,0,0,0,1.449-.731,5.305,5.305,0,0,0,1.531-1.81Zm-49.347-24.765a5.443,5.443,0,0,0-.6-5.429,5.6,5.6,0,0,0-.829-.88L856.679,486.053a9.142,9.142,0,0,0,2.175,1.244l-62,168.446ZM676.316,984.387,769.4,731.45l4.831.108L815.662,864.2l-135.4,122.884c-.189-.2-.384-.4-.587-.585l-.287-.249a10.885,10.885,0,0,0-3.068-1.86M607.631,718.855l-13.435-71,142.937-17.877a5.439,5.439,0,0,0,.88,2.178L616.267,722.231a9.023,9.023,0,0,0-8.637-3.377m-13.886-71.329L390.334,672.968a8.505,8.505,0,0,0-.325-.918L578.53,594.6a5.326,5.326,0,0,0,.579.994,5.415,5.415,0,0,0,5.209,2.114ZM578.4,594.237,389.88,671.688a8.013,8.013,0,0,0-5.371-4.582l26.7-114.536,166.968,38.686a5.4,5.4,0,0,0,.223,2.981M384.139,667.014a8.042,8.042,0,0,0-3.931.106l-41.732-131.4,72.363,16.764Zm6.269,6.331L593.817,647.9l13.436,71.005a8.879,8.879,0,0,0-6.894,6.6L390.421,676.584a8.135,8.135,0,0,0-.013-3.239m226.086,49.192,121.747-90.074a5.415,5.415,0,0,0,3,1.906l-18.34,95.68-104.748-2.288a8.99,8.99,0,0,0-1.654-5.224M769,731.444l-93.04,252.8a11.016,11.016,0,0,0-1.331-.371L723.212,730.44Zm.545-.375L772,724.4l2.114,6.767Zm-.406-.007-45.85-1,18.326-95.6a5.381,5.381,0,0,0,2.263-.109l27.936,89.44Zm-32.06-101.467L594.126,647.477l-9.426-49.82a5.366,5.366,0,0,0,4.025-3.959l148.414,34.387a5.417,5.417,0,0,0-.06,1.508m-158.806-38.71L411.3,552.2l31.088-133.35L579.923,588.284a5.372,5.372,0,0,0-1.652,2.6M338.042,535.617l41.805,131.627a7.979,7.979,0,0,0-2.136,1.066L268.8,524.58a7.942,7.942,0,0,0,2.772-4.363Zm-83.178,42.1L240.1,566.5l20.235-40.984a8.268,8.268,0,0,0,2.037.68ZM375.9,670.169a8.047,8.047,0,0,0-1.458,5.49l-135.72,15.494,16.424-112.734ZM238.328,691.2l-63.363,7.234,64.96-131.58,14.873,11.3Zm97.432-10.74.4-.047,38.338-4.375a8.086,8.086,0,0,0,.694,2.36L229.909,751.657l8.759-60.11Zm278.741,54.6a9.012,9.012,0,0,0,3.627-6.914l104.694,2.291L674.25,983.791a10.772,10.772,0,0,0-4.178.054L611.4,736.529a9.017,9.017,0,0,0,3.1-1.471M816.1,864.32,953.938,739.226a5.261,5.261,0,0,0,3.641,1.7l-5.748,259.9-93.781-2.194ZM953.5,738.727c.056.081.127.14.188.215L815.975,863.916,774.637,731.566l177.831,3.887a5.539,5.539,0,0,0,1.029,3.275m-178.98-7.548-2.3-7.369,24.856-67.533L952.96,733.159a5.815,5.815,0,0,0-.471,1.909ZM797.2,655.913l62-168.47a9.064,9.064,0,0,0,5.931-.048l90.653,242.892a5.372,5.372,0,0,0-1.1.635,5.678,5.678,0,0,0-1.57,1.886Zm57.659-171.647a8.937,8.937,0,0,0,1.508,1.56L745.636,624.8a5.4,5.4,0,0,0-5.516-.612l-106.2-206.452,32.049-111.379L855.238,473.032a9.056,9.056,0,0,0-.376,11.233M580.245,587.989a.407.407,0,0,1-.039.039L442.5,418.372,499.81,172.531a10.775,10.775,0,0,0,4.077.1l2.135,11.275L582.28,587.064a5.462,5.462,0,0,0-2.036.925M493.317,168.343a10.858,10.858,0,0,0,1.267,1.421L361.608,318.721,310.7,256.009,492.322,166.7a11.113,11.113,0,0,0,.995,1.641M361.349,319.01l-67.635,75.763L257.892,281.98l52.457-25.8ZM293.417,395.1l-40.308,45.152L232.86,294.287l24.683-12.138Zm.134.426,16.733,52.682-42.228,63.172a8.149,8.149,0,0,0-5.252-1.249l-9.623-69.38ZM262.424,510.189a7.705,7.705,0,0,0-5.912,4.281l-48.169-23.491,44.5-49.847Zm-6.072,4.629a8.114,8.114,0,0,0,3.632,10.535l-20.2,40.912L181.006,521.6l27.072-30.325ZM180.7,521.367l-83.966-63.8,6.155-17.6L207.719,491.1Zm-.256.29-102,114.258-18.313-73.7L96.6,457.953ZM78.134,636.264,8.9,713.815a5.391,5.391,0,0,0-1.494-.883L59.9,562.874Zm.42.1L180.75,521.89l58.864,44.727-65.1,131.869-78.3,8.938ZM229.421,752.331l-4.005,27.509-95.872,25.215a9.107,9.107,0,0,0-.8-1.953Zm-4.066,27.922-1.5,10.257L129.71,805.9c-.026-.154-.032-.313-.064-.466ZM600.214,729.4a8.99,8.99,0,0,0,1.353,3.349L275.42,956.392l-66.052-63.741L224.2,790.846ZM275.7,956.662,601.763,733.08c.02.028.03.056.05.082a9.02,9.02,0,0,0,2.777,2.462L414.119,1083.347a5.369,5.369,0,0,0-5.7.4,6.1,6.1,0,0,0-.529.481Zm140.294,128.267a5.506,5.506,0,0,0-1.536-1.406L604.938,735.787a9.1,9.1,0,0,0,2.673.914l-43.992,296.664-146.955,52.814a5.475,5.475,0,0,0-.671-1.249m192-348.181a9.046,9.046,0,0,0,3.033-.132L669.7,983.924a10.652,10.652,0,0,0-3.78,1.779,10.837,10.837,0,0,0-3.748,12.244l-98.14,35.272Zm74.657,261.3,194.869,64.2,9.552,30.574-76.893,45.415L680.063,1002.211a10.69,10.69,0,0,0,2.587-4.158M877.969,1062.4l38.917,12.82-29.479,17.407Zm-.142-.448L858.17,999.014l93.653,2.194-1.195,54.084-33.307,19.672Zm72.788-6.21-.663,29.968-32.149-10.59Zm.4-.681,1.191-53.845,80.957,1.892a6.881,6.881,0,0,0,.481,3.154Zm1.2-54.23,5.748-259.889a5.252,5.252,0,0,0,1.355-.223l78.028,256.147a6.581,6.581,0,0,0-1.452.884,7.584,7.584,0,0,0-2.7,4.977Zm92.984,4.461,209.93,73.566a8.493,8.493,0,0,0,.65,6.725l-28.43,17.844-182.41-97.578c.091-.189.185-.369.26-.557m.134-.365a7.4,7.4,0,0,0,.252-3.876L1156.8,961.33l100.515,114.035a8.57,8.57,0,0,0-2.067,3.13Zm111.857-43.738,68.683-24.532,34.763,136.717a8.126,8.126,0,0,0-2.576,1.3c-.171.129-.3.289-.46.43Zm-.275-.313-43.379-49.213,77.472-95.794a5.434,5.434,0,0,0,4.4.978l30.367,119.434Zm32.974-146.1a5.447,5.447,0,0,0,.807.867l-77.42,95.729L961.638,739.339a5.687,5.687,0,0,0,1.668-3.747l266.427.974-33.32,70.007a5.418,5.418,0,0,0-6.522,8.2M963.331,735.206a5.839,5.839,0,0,0-.074-.735l296.482-60.944-29.82,62.654Zm-7.18-5.054-15.163-40.619-.152-.41L865.5,487.271a8.917,8.917,0,0,0,2.058-1.107,9.053,9.053,0,0,0,3.662-7.623l169.5-9.791L959.364,730.014a5.3,5.3,0,0,0-3.213.138M511.132,156.258,747.877,8.466c.044.067.073.14.121.2a5.4,5.4,0,0,0,2.686,1.926l-84.91,295.078L510.39,168.837a10.861,10.861,0,0,0,.742-12.579m-2.668,14.436a10.719,10.719,0,0,0,1.685-1.558L665.656,306.082,633.67,417.242,507.245,171.461a10.606,10.606,0,0,0,1.219-.767m-1.558.946,126.61,246.139L584.789,587.113a5.408,5.408,0,0,0-2.107-.106L504.265,172.558a10.682,10.682,0,0,0,2.642-.919m-291.3-38.374,275.6,27.668a10.9,10.9,0,0,0,.947,5.427L310.456,255.7l-96.674-119.1a5.4,5.4,0,0,0,1.825-3.343m-2.146,3.633c.013-.008.024-.023.038-.032l96.6,119.011-52.328,25.732L212.046,137.628a5.39,5.39,0,0,0,1.415-.729m-1.775.855,45.74,144.026L232.8,293.887,211.16,137.865c.177-.032.351-.064.525-.112m-3.065-.046a5.43,5.43,0,0,0,2.16.21l21.661,156.146-94.827,46.628ZM232.5,294.465l20.278,146.168L207.986,490.8l-104.972-51.19,34.421-98.4ZM24.341,396.821l112.6-55.37-34.276,97.992-78.337-38.2a5.415,5.415,0,0,0,.01-4.419m-.172,4.766,78.369,38.223-6.125,17.516L23.807,402.162a5.547,5.547,0,0,0,.362-.575m-1.548,1.822a5.535,5.535,0,0,0,.961-.937l72.7,55.234L59.96,561.532,20.877,404.249a5.371,5.371,0,0,0,1.744-.84m-3.28,1.047a5.308,5.308,0,0,0,1.163-.11L59.728,562.2,7.045,712.807a5.424,5.424,0,0,0-1.179-.218ZM10.787,717.177a5.373,5.373,0,0,0-.982-2.426,5.281,5.281,0,0,0-.618-.68l69.059-77.358,17.581,70.755ZM96.307,707.8l78-8.906L124.747,799.287a9.07,9.07,0,0,0-5.886-.718Zm33.457,98.477L223.8,790.911l-14.775,101.41-81.592-78.741a9.019,9.019,0,0,0,2.329-7.3m-5.82,9.6a8.956,8.956,0,0,0,2.256-1.177,8.452,8.452,0,0,0,.951-.863l81.809,78.946-16.915,116.095a5.438,5.438,0,0,0-2.116.217Zm72.789,199.877a5.4,5.4,0,0,0-.692-4.472l79.337-54.4,132.227,127.61a5.269,5.269,0,0,0-1.035,1.752ZM520.8,1303.082,414.292,1092.876a5.231,5.231,0,0,0,.609-.364,5.373,5.373,0,0,0,1.891-5.969L563.556,1033.8,523.69,1302.63a5.437,5.437,0,0,0-2.889.452m3.27-.395,39.9-269.039L662.311,998.3a10.9,10.9,0,0,0,5.264,5.856L525.241,1303.048a5.507,5.507,0,0,0-1.17-.36m3.578,2.413c-.068-.1-.115-.217-.191-.318a5.356,5.356,0,0,0-1.871-1.571l142.328-298.878a10.757,10.757,0,0,0,10.962-1.081,10.575,10.575,0,0,0,.916-.768l130.045,135.959Zm414.956-29.119c-.134.1-.24.22-.364.33L810.45,1138.528l76.739-45.322,56.857,182.04a5.424,5.424,0,0,0-1.44.736m1.8-.862-56.88-182.114,29.843-17.624,32.576,10.732-4.178,188.816a5.4,5.4,0,0,0-1.361.191m1.745-.172,4.174-188.707,54.719,18.026-57.655,170.9a5.453,5.453,0,0,0-1.238-.214m4.172,2.362c-.043-.064-.071-.132-.118-.2a5.361,5.361,0,0,0-2.452-1.84l57.656-170.888,144.549,47.62Zm55.207-173.285,31.844-94.38a6.151,6.151,0,0,0,5.6-1.261,7.468,7.468,0,0,0,1.808-2.18l182.2,97.466-76.594,48.073ZM1581.3,1293.706,1150.854,1151.9l76.511-48.021,354.124,189.439a3.65,3.65,0,0,0-.185.389m.346-.738-353.908-189.327,28.231-17.722c.1.163.17.335.283.492a7.988,7.988,0,0,0,11.414,1.654,8.469,8.469,0,0,0,1.874-2.046l312.19,206.806c-.029.045-.057.094-.084.143m6.286-2.487a5.3,5.3,0,0,0-5.975,2.035l-312.193-206.8a8.538,8.538,0,0,0,.069-8.758l500.776-333.931c.039.06.066.124.111.182a8.173,8.173,0,0,0,3.692,2.786Zm182.479-547.788-500.77,333.924c-.064-.092-.1-.2-.166-.288a7.949,7.949,0,0,0-8.477-3.089L1226.24,936.531l543.917-194.274c.082.145.171.289.259.435m-.455-.774L1226.144,936.155l-30.366-119.41a5.293,5.293,0,0,0,1.712-.831,5.414,5.414,0,0,0,2.166-4.852l569.584-71.488a8.077,8.077,0,0,0,.719,2.345m-.774-2.723L1199.6,810.682a5.34,5.34,0,0,0-.97-2.369,5.435,5.435,0,0,0-1.871-1.575l33.4-70.17,538.961,1.972c.008.224.039.439.063.658m-.043-1.036-538.8-1.975,29.87-62.753,170.173-34.979,339.007,97.863a8.193,8.193,0,0,0-.25,1.844M1551.517,618.392a5.415,5.415,0,0,0,1.451-1.609L1770,734.668a7.791,7.791,0,0,0-.516,1.279L1431.2,638.288,1543,615.307a5.517,5.517,0,0,0,.914,1.945,5.435,5.435,0,0,0,7.6,1.14M1300.7,599.764,1542.871,613.9a5.374,5.374,0,0,0,.075,1.025L1430.4,638.054l-129.845-37.481a5.711,5.711,0,0,0,.141-.809m-8.082-5.195a4.426,4.426,0,0,0-.543.323,5.407,5.407,0,0,0-1.85,6.213L962.9,733.148a5.673,5.673,0,0,0-.605-1.115c-.068-.1-.16-.17-.234-.261l266.8-247.36a5.426,5.426,0,0,0,6.2,1.072ZM1142.6,466.221a4.186,4.186,0,0,0,1.454-2.483l83.287,16.018a5.415,5.415,0,0,0,1,4.071c.086.113.188.2.276.305l-266.8,247.355a5.142,5.142,0,0,0-.677-.6l176.981-264.56a3.66,3.66,0,0,0,4.478-.105m-6.231-3a4.489,4.489,0,0,0,.748,2.1,4.394,4.394,0,0,0,.327.382l.256.289c.039.035.081.061.123.1L960.827,730.656a5.123,5.123,0,0,0-1.091-.549l81.392-261.38Zm-95.524,5.135-169.667,9.8a8.816,8.816,0,0,0-3.073-6.126l271.26-325.785a5.409,5.409,0,0,0,1.517.848ZM1138.3,145.2a5.281,5.281,0,0,0,.747.819L867.792,471.806a9.053,9.053,0,0,0-7.494-1.794L753.781,10.678a5.334,5.334,0,0,0,3.639-3.27L1137.5,140.364a5.409,5.409,0,0,0,.805,4.839" transform="translate(0 -0.002)" fill="#fff"/>
    <path id="Path_14" data-name="Path 14" d="M641.369,87.643a4.926,4.926,0,0,0,.412,2.714L313.646,253.939a4.936,4.936,0,1,0-5.55,7.13L254.187,509.433c-.152-.027-.3-.062-.453-.085a9.869,9.869,0,0,0-11.152,8.39A9.726,9.726,0,0,0,244.7,525.2L51.609,687.482a4.9,4.9,0,0,0-2.991-1.6,4.949,4.949,0,1,0,1.381,9.4l87.52,175.56L102.025,979.831a5.322,5.322,0,0,0-.695-.168,4.952,4.952,0,1,0,2.581,8.608L296.426,1192.75a4.9,4.9,0,0,0-1.4,2.807,4.95,4.95,0,1,0,8.06-3.133l47.691-61.689,73.594,42.951a8.235,8.235,0,1,0,14.557,7.69l167.989,79.651a4.942,4.942,0,1,0,9.444,2.594,4.9,4.9,0,0,0-.453-2.82l179.258-92.165a4.964,4.964,0,0,0,8.965-.794l204.817,63.995a5.26,5.26,0,0,0-.153.635,4.949,4.949,0,1,0,6.237-4.08l70.474-290.059,173.685,1.5a4.939,4.939,0,1,0,6.135-4.908L1310.4,724.787l366.155-190.963a4.953,4.953,0,1,0,2.257-6.852L1441.94,59.5a7.316,7.316,0,0,0,3.887-5.5,7.448,7.448,0,0,0-14.758-2.014,7.212,7.212,0,0,0,.241,3.04l-214.757,66.756a4.935,4.935,0,1,0-8.406,4.825L1045.126,275.665a4.913,4.913,0,0,0-8.206,1.892l-107.727-31.73a4.643,4.643,0,0,0,.132-.553,4.951,4.951,0,1,0-9.046,2.007l-63.364,44.189a4.131,4.131,0,0,0-2.475-1.454,3.515,3.515,0,0,0-2.948.817l-.258.237a3.342,3.342,0,0,0-.859,1.952,3.937,3.937,0,0,0,1.262,3.2l-56.8,65.538L648.778,92.555a4.922,4.922,0,0,0,.876-.661l.258-.238a4.947,4.947,0,1,0-8.542-4.013M311.9,260.488A4.933,4.933,0,0,0,313.44,259l367.38,222.193a8.23,8.23,0,0,0-1.036,3.01,8.353,8.353,0,0,0-.055,1.572L450.621,503.443Zm729.042,23.533a4.881,4.881,0,0,0,2.212-.22l24.18,65.28L918.689,581.457a5.006,5.006,0,0,0-.491-.247l121.7-297.455a4.906,4.906,0,0,0,1.044.265m5.568-4.237a4.908,4.908,0,0,0-.527-2.957l106.332-60.591-84.745,132.477-24.087-65.036a4.933,4.933,0,0,0,3.028-3.893M1145.3,708.23l41.36,80.7-46.61,24.308-19.361-19.7,20.676-85.1a6.014,6.014,0,0,0,.716.212,5.16,5.16,0,0,0,3.219-.423M608.532,1258.967l-64.853-84.554L626.9,1171.8l-14.871,86.244a4.917,4.917,0,0,0-3.5.922m-179.449-89.09-34.111-96.305,35.6-46.051,33.759,44.016-30.89,98.2a7.473,7.473,0,0,0-.777-.185,8.147,8.147,0,0,0-3.582.327M582.756,734.868l-79.366-139,201.827,61.711a5.164,5.164,0,0,0-.145.607,4.839,4.839,0,0,0,.688,3.182L589.07,736.372a4.9,4.9,0,0,0-6.314-1.5m558.9-38.5a5.178,5.178,0,0,0-4.282,3.263L920.691,587.885a5.005,5.005,0,0,0,.411-1.4c.012-.109,0-.213.006-.321l208.613,10.305Zm-11.583-99.888,59.467,2.94L1144.9,697.073a5.768,5.768,0,0,0-1.744-.658,5.267,5.267,0,0,0-1.154-.091ZM910.827,929.567a9.955,9.955,0,0,0-5.59-2.721c-.268-.038-.534-.057-.8-.07l5.8-166.239,114.035,57.794ZM1024.6,818.5l53.435,27.08L912.6,931.866a9.982,9.982,0,0,0-1.522-2.056ZM549.287,979.112a4.94,4.94,0,0,0-1.56-4.311L684.576,814.965c.08.061.168.12.251.182l-198.646,284.3-5.767-7.521,61.693-109.109a4.9,4.9,0,0,0,7.18-3.706m-1.831-4.528a4.9,4.9,0,0,0-7.64,1.99l-.128.324a4.871,4.871,0,0,0,2.11,5.758l-61.616,108.971-15.464-20.161,44.54-141.588a7.174,7.174,0,0,0,1.043.249,7.392,7.392,0,0,0,8.364-6.29A7.224,7.224,0,0,0,517.593,919L682.841,813.079a8.237,8.237,0,0,0,1.45,1.678ZM340.635,903.2a7.56,7.56,0,0,0,.316-1.315L503.906,922.1a7.247,7.247,0,0,0,.034,1.665L367.2,944.319l-28.967-37.767a7.287,7.287,0,0,0,2.261-3.03Zm-8.394-9.612-14.35-67.417,73.9,37.011-52.082,33.474a7.288,7.288,0,0,0-7.467-3.068M254.216,528.728l39.173,184.024-27.453-2.477L253.179,528.86a10.337,10.337,0,0,0,1.036-.133m.343-.074a9.944,9.944,0,0,0,3.11-1.237L381.543,720.7l-87.789-7.922Zm38.905,184.455L317.4,825.534l-44.938-22.508-6.5-92.4Zm.366.034,87.953,7.935,67.421,105.2-57.071,36.685L317.8,825.734Zm468.242-72.574,28.1,58.73-75.711-38.371a4.562,4.562,0,0,0,.233-3.558Zm-47.5,16.473a4.9,4.9,0,0,0-5.024-3.072L689.18,493.45a8.2,8.2,0,0,0,2.192-.629l70.549,147.43ZM899.825,927.623,793.886,706.245l3.138-3.083,112.865,57.2-5.8,166.395c-.253,0-.507,0-.755.013l-.345.029a9.9,9.9,0,0,0-3.162.823M682.931,803.811l-54.862-36.323,79.111-104.624a4.926,4.926,0,0,0,1.979.807L690.62,800.321a8.22,8.22,0,0,0-7.689,3.49m-55.364-36.236L514.99,916.467a7.241,7.241,0,0,0-.8-.37l69.185-172.2a4.826,4.826,0,0,0,1.015.25,4.929,4.929,0,0,0,4.688-2.053Zm-44.515-23.829L513.869,915.953a7.329,7.329,0,0,0-1.591-.409,7.421,7.421,0,0,0-4.811,1l-57.784-90.164L580.962,742a4.939,4.939,0,0,0,2.09,1.75M507.171,916.727a7.362,7.362,0,0,0-2.426,2.634L392.5,863.143l56.9-36.574Zm8.113-.068L627.86,767.769l54.867,36.323a8.092,8.092,0,0,0-.071,8.691L517.406,918.707a7.414,7.414,0,0,0-2.122-2.048m175.68-116.291L709.5,663.717a4.93,4.93,0,0,0,3.146-.744l50.79,72.733-68.017,66.9a8.152,8.152,0,0,0-4.458-2.238m102.659-93.861L899.5,927.764a9.937,9.937,0,0,0-1.088.631L763.895,735.748Zm.106-.593-2.8-5.839,5.761,2.918Zm-.266.26-29.773,29.285-50.74-72.67a4.913,4.913,0,0,0,1.367-1.547l76.1,38.572Zm-86.57-43.518L627.778,767.295l-38.5-25.489a4.881,4.881,0,0,0-.027-5.139l116.691-75.008a4.981,4.981,0,0,0,.948,1M580.781,741.7,449.5,826.09,382.221,721.115l197.911,17.857a4.889,4.889,0,0,0,.648,2.73M392.156,863.365,504.6,919.677a7.26,7.26,0,0,0-.66,2.071L340.979,901.537a7.211,7.211,0,0,0-1.085-4.579ZM366.8,944.382l-16.7,2.508-13.895-39.23a7.418,7.418,0,0,0,1.737-.9ZM504,924.108a7.319,7.319,0,0,0,2.655,4.437l-76.079,98.4-63.133-82.312Zm-73.646,103.13-35.519,45.942-44.61-125.953,16.822-2.529Zm54.868-70.4.223-.292,21.492-27.794a7.385,7.385,0,0,0,1.981,1.045l-44.46,141.329L430.8,1027.238ZM697.869,809.617a8.2,8.2,0,0,0-2.208-6.756L763.641,736,898.124,928.591a9.884,9.884,0,0,0-2.619,2.759L696.858,812.577a8.212,8.212,0,0,0,1.011-2.96m212.38-49.464,5.906-169.387a4.785,4.785,0,0,0,3.422-1.3L1085.52,758.274l-60.989,59.8Zm5.3-169.416c.089.015.172.005.26.013l-5.9,169.231L797.286,702.9,912.759,589.329a5.038,5.038,0,0,0,2.79,1.408m-118.59,112-6.27-3.18L762.4,640.453l149.172-52.9a5.263,5.263,0,0,0,.948,1.52Zm-34.708-62.6L691.692,492.685a8.262,8.262,0,0,0,3.735-3.9l216.068,95.1a5.07,5.07,0,0,0-.282,1.12,5.128,5.128,0,0,0,.235,2.223ZM686.859,493.5a8.317,8.317,0,0,0,1.977.007L709.2,654.026a4.918,4.918,0,0,0-3.9,3.21L503.137,595.425l-52.326-91.648,228.958-17.656a8.249,8.249,0,0,0,7.091,7.38M580.145,738.574c0,.018,0,.034,0,.051L381.982,720.743,257.956,527.221a9.839,9.839,0,0,0,2.653-2.6l8.713,5.768L580.834,736.659a4.908,4.908,0,0,0-.689,1.916M251.1,528.8a10.08,10.08,0,0,0,1.731.076l12.752,181.371-73.249-6.607L249.4,528.4a10.029,10.029,0,0,0,1.7.393m14.508,181.8,6.487,92.254-96.354-48.259,16.483-50.612Zm6.514,92.654,3.866,54.979L167.878,778.739l7.755-23.814Zm.363.185,45,22.536L331.9,893.646a7.4,7.4,0,0,0-4.15,2.632L276.358,858.5Zm55.052,93.127a7.022,7.022,0,0,0-.96,6.578L280.659,919.65l-4.268-60.7Zm-.835,6.9a7.388,7.388,0,0,0,9.182,4.318l13.871,39.165-66.475,9.993-2.6-36.925Zm-43.77,53.526-94.955,14.278-7.572-15.189,99.936-35.943Zm.026.353,9.784,139.12-59.725-34.855L188.142,971.6Zm9.814,139.542,6.639,94.43a4.956,4.956,0,0,0-1.525.413L233.3,1062.177Zm.336-.209-9.8-139.388,66.569-10.009,44.707,126.23-43.891,56.773Zm171.484-24.8,15.4,20.084-44.429,78.575a8.382,8.382,0,0,0-1.785-.715Zm15.636,20.387,5.743,7.49-49.752,71.205c-.118-.078-.224-.178-.345-.252ZM685.107,815.351a8.133,8.133,0,0,0,3.043,1.243L626.959,1171.45l-83.54,2.623-57.013-74.332Zm-57.79,356.089L688.49,816.675c.029,0,.055.018.084.018a8.127,8.127,0,0,0,3.371-.248l105.942,345.116a4.895,4.895,0,0,0-3.356,3.979,4.99,4.99,0,0,0-.022.65Zm172.793-10.091a4.985,4.985,0,0,0-1.891.11L692.273,816.321a8.2,8.2,0,0,0,2.293-1.163l165.65,217.108L801.352,1161.7a4.915,4.915,0,0,0-1.241-.355M694.84,814.937a8.183,8.183,0,0,0,1.84-2.061L895.32,931.644a9.733,9.733,0,0,0-1.237,3.6,9.864,9.864,0,0,0,5.608,10.219l-39.309,86.443ZM912.765,932.166l165.65-86.391,26.017,13.185-19.2,79.018-171.4-1.482a9.719,9.719,0,0,0-1.071-4.33M1078.8,845.577l33.08-17.255-7.36,30.291Zm-.381-.2-53.553-27.141,60.905-59.719,34.534,35.127-8.315,34.228Zm42.174-51.438,19.133,19.465L1112.4,827.66Zm-.193-.693-34.379-34.973,52.647-51.626a6.239,6.239,0,0,0,2.363,1.688Zm-34.625-35.224-165.94-168.8a4.719,4.719,0,0,0,.719-1.024l216.7,111.75a6.226,6.226,0,0,0-.344,1.512,6.912,6.912,0,0,0,1.535,4.921Zm61.962-57.844,181.326-90.27a7.741,7.741,0,0,0,4.8,3.847l-6.413,29.885-179.518,57.06c-.064-.179-.122-.352-.2-.523m-.151-.319a6.733,6.733,0,0,0-2.372-2.626l44.711-97.8,138.249,6.828a7.788,7.788,0,0,0,.728,3.335Zm42.494-100.771,27.611-60.4,111.288,64.138a7.345,7.345,0,0,0-.785,2.5c-.026.194-.005.383-.014.576Zm-.379-.017-59.661-2.945-13.31-111.392a4.937,4.937,0,0,0,3.433-2.251l97.221,56.033Zm-74.4-114.3a5.194,5.194,0,0,0,1.077.023l13.3,111.314-208.564-10.3a5.17,5.17,0,0,0-1.384-3.467l169.835-173.239,24.523,66.2a4.934,4.934,0,0,0,1.208,9.463M919.5,582.084a5.31,5.31,0,0,0-.529-.419l148.521-232.172,21.945,59.25Zm-7.859,1.476-36.134-15.9-.363-.16L695.573,488.471a8.136,8.136,0,0,0,.585-2.047,8.242,8.242,0,0,0-2.649-7.23L794.766,362.368,913.589,581.376a4.827,4.827,0,0,0-1.951,2.184M254.526,509.5l53.908-248.345c.073.012.139.039.21.05a4.908,4.908,0,0,0,2.962-.53l138.629,242.8-187.972,14.5a9.885,9.885,0,0,0-7.738-8.472m7.726,10.908a9.614,9.614,0,0,0,.054-2.09l188.123-14.508,52.224,91.47L261.979,521.688a9.425,9.425,0,0,0,.273-1.283m-.37,1.617,241.022,73.7L582.458,735.05a4.92,4.92,0,0,0-1.405,1.311L260.8,524.329a9.726,9.726,0,0,0,1.079-2.307M51.845,687.739,244.923,525.47a9.935,9.935,0,0,0,4.142,2.828L191.979,703.6,52.869,691.052a4.916,4.916,0,0,0-1.024-3.314m1.009,3.709a.361.361,0,0,0,0-.046l139.011,12.541L175.425,754.43l-122.994-61.6a4.961,4.961,0,0,0,.423-1.385m-.57,1.7,123.033,61.616-7.736,23.757L52.024,693.56c.091-.133.181-.269.26-.412m-1.978,1.97a4.945,4.945,0,0,0,1.511-1.274L167.468,778.87l-29.8,91.492Zm117.458,83.97,108.258,79.6,4.295,61.087L180.249,955.763,137.9,870.808Zm-65.4,200.837,35.38-108.643,42.178,84.6L105.24,982.739a4.931,4.931,0,0,0-2.879-2.814m3,3.14L180.076,956.2l7.539,15.122-82.107,12.344a4.82,4.82,0,0,0-.144-.6m.2,2.166a5.02,5.02,0,0,0,0-1.219l82.211-12.363,44.686,89.637L105.009,986.9a4.87,4.87,0,0,0,.56-1.671m-1.4,2.807a5.058,5.058,0,0,0,.665-.831l127.914,74.65,64.824,130.031a4.629,4.629,0,0,0-.89.627ZM302.8,1192.219a4.857,4.857,0,0,0-2.206-.9,4.62,4.62,0,0,0-.836-.029l-6.623-94.193,57.335,33.465Zm48.192-61.76L394.72,1073.9l34.035,96.1a8.262,8.262,0,0,0-4.206,3.387Zm85.507,40.705,49.7-71.123,56.791,74.045-103.2,3.237a8.22,8.22,0,0,0-3.29-6.159m2.574,9.9a8.235,8.235,0,0,0,.665-2.221,8.1,8.1,0,0,0,.039-1.169l103.469-3.248,65.015,84.767a4.889,4.889,0,0,0-1.2,1.517ZM615.731,1260.5a4.913,4.913,0,0,0-3.359-2.389l14.884-86.32,167.244-5.246a4.865,4.865,0,0,0,.487,1.79Zm393.3-29L804.214,1167.5a4.693,4.693,0,0,0,.152-.629,4.9,4.9,0,0,0-2.7-5.024l58.786-129.27,150.11,196.743a4.948,4.948,0,0,0-1.539,2.172m1.817-2.387L860.622,1032.221,900.012,945.6a9.9,9.9,0,0,0,7.163.285l104.65,282.695a5.137,5.137,0,0,0-.98.532m3.849-.8c-.112-.022-.214-.062-.331-.078a4.9,4.9,0,0,0-2.212.222L907.507,945.772a9.805,9.805,0,0,0,6.257-7.841,10.222,10.222,0,0,0,.081-1.085l171.305,1.483Zm244.523-289.274c-.021.151-.009.3-.015.448l-173.611-1.5,19.161-78.858,154.9,78.508a4.838,4.838,0,0,0-.433,1.4m.581-1.721-154.96-78.54,7.449-30.665,27.692-14.441L1260.537,936.3a5.086,5.086,0,0,0-.739,1.01m1-1.248L1140.3,813.5l46.511-24.26,74.9,146.153a5.019,5.019,0,0,0-.924.675m4.19-1.222c-.07-.012-.131-.039-.2-.048a4.887,4.887,0,0,0-2.761.431l-74.9-146.15L1310,725ZM1186.967,788.77,1145.6,708.053a5.6,5.6,0,0,0,2.731-4.454,6.73,6.73,0,0,0-.274-2.565l179.306-57L1310.1,724.552ZM1676.4,533.512l-365.9,190.83,17.25-80.422,348.51-110.777a3.671,3.671,0,0,0,.139.369m-.266-.7-348.3,110.709,6.364-29.676c.17.038.328.1.5.127a7.274,7.274,0,0,0,8.326-6.4,7.742,7.742,0,0,0-.143-2.52L1676.1,532.671c.01.047.023.1.036.143m2.37-5.679a4.917,4.917,0,0,0-2.518,3.654,4.973,4.973,0,0,0,.052,1.538l-333.214,72.385a7.773,7.773,0,0,0-5.67-5.606l100.118-538.85c.067.011.125.035.189.045a7.452,7.452,0,0,0,4.164-.64ZM1436.935,60.176,1336.813,599.016c-.1-.018-.195-.058-.3-.073a7.236,7.236,0,0,0-7.4,3.568l-111.286-64.134,218.653-478.31c.146.04.3.073.448.108m-.8-.194L1217.527,538.2l-97.2-56.018a4.859,4.859,0,0,0,.548-1.645,4.928,4.928,0,0,0-1.792-4.495L1434.153,58.961a7.311,7.311,0,0,0,1.985,1.021m-2.265-1.225L1118.794,475.837a4.832,4.832,0,0,0-2.162-.871,4.923,4.923,0,0,0-2.215.22l-24.577-66.358L1433.4,58.382c.148.137.311.252.47.374m-.7-.629L1089.7,408.467l-21.978-59.344,85.245-133.26L1432.123,56.792a7.389,7.389,0,0,0,1.046,1.335m-216.359,65.952a4.941,4.941,0,0,0-.131-1.969l214.756-66.759a6.832,6.832,0,0,0,.5,1.146L1153.378,215.228l56.005-87.552a4.959,4.959,0,0,0,7.426-3.6M1045.364,275.922l163.019-149.056a4.875,4.875,0,0,0,.716.6l-56.38,88.133L1045.8,276.527a5.155,5.155,0,0,0-.436-.606m-8.525,1.973a4.153,4.153,0,0,0-.133.562,4.921,4.921,0,0,0,2.876,5.153l-121.7,297.449a4.889,4.889,0,0,0-1.113-.313c-.106-.019-.21-.007-.318-.016l8.025-331.193a4.932,4.932,0,0,0,4.635-3.365ZM857.815,294.282a3.816,3.816,0,0,0-.7-2.526l63.346-44.176a4.931,4.931,0,0,0,3.29,1.933c.127.016.25,0,.375.012L916.1,580.714a4.778,4.778,0,0,0-.824.058l-60.242-283.5a3.333,3.333,0,0,0,2.776-2.988m-5.913,2.161a4.075,4.075,0,0,0,1.844.846c.154.024.3.023.457.032l.35.014c.048,0,.093-.015.142-.019l60.24,283.51a4.846,4.846,0,0,0-1.048.365L795.01,362.085Zm-57.315,65.6L693.235,478.98a8.069,8.069,0,0,0-5.95-1.885L646.962,93.19a4.888,4.888,0,0,0,1.517-.451ZM645.608,93.216a4.921,4.921,0,0,0,1.009.032l40.324,383.9a8.244,8.244,0,0,0-5.929,3.75L313.627,258.7a4.855,4.855,0,0,0,.178-4.451L641.94,90.668a4.934,4.934,0,0,0,3.668,2.548" transform="translate(-21.483 -22.792)" fill="#fff"/>
  </g>
</svg>
