<svg id="Horizontal" xmlns="http://www.w3.org/2000/svg" viewBox="0 0 598.94 162.83"><defs><style>.cls-1{fill:#2355a1;}.cls-2{fill:#2555a1;}.cls-3{fill:#353e47;}.cls-4{fill:#343d47;}.cls-5{fill:#032a3c;}.cls-6{fill:#002a3c;}</style></defs><path class="cls-1" d="M68.15,138l11.38,6.47L90.91,138V47.7H68.15V138" transform="translate(-6.53 -43.8)"/><path class="cls-2" d="M66.18,141.33l10.26,5.82c1.63.93,3.15,1.62,5.06.64.44-.22.86-.48,1.28-.73l10.1-5.73A3.92,3.92,0,0,0,94.81,138V47.7a4,4,0,0,0-3.9-3.9H68.15a4,4,0,0,0-3.9,3.9v79.12c0,3.66-.12,7.34,0,11V138a3.9,3.9,0,1,0,7.8,0V58.85c0-3.64.22-7.36,0-11V47.7l-3.9,3.9H90.91L87,47.7V138l1.93-3.36-11.38,6.46H81.5L70.12,134.6a3.9,3.9,0,1,0-3.94,6.73Z" transform="translate(-6.53 -43.8)"/><path class="cls-3" d="M130.5,74.8l-23-13.06a.1.1,0,0,0-.14.07V88.13a.1.1,0,0,0,.05.08l18.81,10.36a.08.08,0,0,1,.05.08v51.4a.1.1,0,0,1-.05.08s-39.37,21.06-47.31,25.44c5.4,3,17.44,9.66,24.62,13.64l45-25.58a.1.1,0,0,0,0-.08V85.15a.1.1,0,0,0,0-.08Z" transform="translate(-6.53 -43.8)"/><path class="cls-4" d="M132.47,71.43l-16.09-9.14-5.17-2.93a8,8,0,0,0-3.78-1.52,3.92,3.92,0,0,0-3.37,1.93c-.82,1.36-.58,3.16-.58,4.68V85.3c0,2.43-.25,4.93,2.14,6.36,4.42,2.65,9.06,5,13.58,7.48l5.07,2.79-1.4-1.39,0,.07-.53-2v51.4l.53-2,0,.08,1.4-1.4-13.76,7.37Q98.27,160.7,86,167.29c-3,1.63-6,3.26-9.06,4.91a3.93,3.93,0,0,0,0,6.73c8.12,4.49,16.15,9.19,24.36,13.5,2,1.06,3.52.53,5.34-.5l2.67-1.52,5.3-3,11.8-6.7,20-11.37c1.34-.76,2.73-1.48,4-2.3,1.69-1.05,2.05-2.63,2.05-4.39V86.18c0-1.82-.31-3.42-2.08-4.53-3.15-2-6.5-3.7-9.74-5.54l-8.24-4.68a3.9,3.9,0,0,0-3.93,6.74l18.08,10.27-1.4-1.4,0,.07-.53-2v78.4l.53-2,0,.08,1.4-1.4-33.4,19-11.64,6.61h3.94L80.9,172.2v6.73c9.31-5.12,18.71-10.11,28.08-15.13l14.41-7.73,4-2.13a4.61,4.61,0,0,0,2.81-4c.14-2.59,0-5.23,0-7.82V99.46a4.63,4.63,0,0,0-2.14-4.35c-1.48-.88-3-1.66-4.53-2.49l-13.23-7.29-.89-.49,1.4,1.4,0-.08.53,2V61.81l-.53,2,0-.07-3.36,1.93h.09l-2-.53,23,13.06a3.9,3.9,0,0,0,3.93-6.74Z" transform="translate(-6.53 -43.8)"/><path class="cls-5" d="M29.78,74.11,51.33,61.86a.24.24,0,0,1,.35.21V88a.22.22,0,0,1-.12.21L32.89,98.53a.21.21,0,0,0-.11.2V150a.22.22,0,0,0,.12.21l32.59,18,38.06,21.09-23.9,13.58a.25.25,0,0,1-.24,0L10.55,163.67a.24.24,0,0,1-.12-.21V85.23a.22.22,0,0,1,.12-.2Z" transform="translate(-6.53 -43.8)"/><path class="cls-6" d="M31.74,77.47,53.3,65.23l-2,.53h.24L48.2,63.83l.12.2-.54-2V88l.54-2-.12.2,1.39-1.4-12.76,7-4.46,2.46c-1.79,1-3.38,2-3.49,4.36-.12,2.6,0,5.23,0,7.82V141c0,2.95-.17,5.94,0,8.89.12,2.23,1.46,3.32,3.18,4.27L37.21,157l26.08,14.36q16.35,9,32.65,18.09l5.64,3.12v-6.73l-20.9,11.88-3,1.7,2-.53h-.24l2,.53L58.05,186.17,21,165.09l-8.43-4.79,1.4,1.4-.12-.2.53,2V85.23l-.53,2,.11-.2-1.39,1.4L31.74,77.47a3.9,3.9,0,0,0-3.93-6.73L9.34,81.23a4.85,4.85,0,0,0-2.8,4,5.42,5.42,0,0,0,0,.57v77.09a4.64,4.64,0,0,0,2.08,4.16c.34.22.71.41,1.06.61l15.49,8.79,24.32,13.82,21.3,12.1,5.71,3.24c.31.18.61.38.93.53,1.91,1,3.51.4,5.16-.54l21-11.95,1.89-1.08a3.93,3.93,0,0,0,0-6.73q-18.94-10.49-37.89-21L45.18,152.48,34.87,146.8l1.39,1.4-.12-.2.53,2V98.73l-.53,2,.12-.2-1.4,1.4L45.63,96c2.52-1.38,5.11-2.69,7.57-4.17a4.86,4.86,0,0,0,2.38-4.6V63.59a6.7,6.7,0,0,0-.65-3.69A3.9,3.9,0,0,0,51.57,58c-2.15,0-4.36,1.75-6.2,2.79l-5.59,3.18-12,6.8a3.9,3.9,0,1,0,3.93,6.73Z" transform="translate(-6.53 -43.8)"/><path d="M262.7,76.11v39.55H201.17V142H188V76.11ZM249.51,89.29H201.17v13.18h48.34Z" transform="translate(-6.53 -43.8)"/><path d="M346.19,76.11V142h-74.7V76.11ZM333,89.29H284.67v39.55H333Z" transform="translate(-6.53 -43.8)"/><path d="M420.9,123.92V76.11h13.18V142H420.37l-25.84-25.84L368.69,142H355V76.11h13.19v47.81l26.36-26.37Z" transform="translate(-6.53 -43.8)"/><path d="M517.58,89.29H442.87V76.11h74.71Zm0,26.37H442.87V102.47h74.71Zm0,26.36H442.87V128.84h74.71Z" transform="translate(-6.53 -43.8)"/><path d="M539.55,89.29V142H526.37V76.11h74.71v39.55h-22L605.47,142H586.84l-39.55-39.55h40.6V89.29Z" transform="translate(-6.53 -43.8)"/><path d="M230.48,174.27l.55-2.06h2l-.61-5.16-4.74,7.22h-2.35L232.22,164h2.07l1.35,10.31Z" transform="translate(-6.53 -43.8)"/><path d="M259.71,166h-8.25l-.55,2.06h8.25l-1.67,6.19H247.17l.55-2.06H256l.58-2.06H248.3l1.64-6.19h10.32Z" transform="translate(-6.53 -43.8)"/><path d="M281.55,166H273.3l-.54,2.06H281l-1.68,6.19H269l.55-2.06h8.25l.58-2.06h-8.25l1.64-6.19H282.1Z" transform="translate(-6.53 -43.8)"/><path d="M294.05,170.15l-.58,2.06h8.25l-.54,2.06H290.86L293.64,164H304L303.4,166h-8.25l-.55,2.06h6.19l-.55,2.07Z" transform="translate(-6.53 -43.8)"/><path d="M315.48,164h10.31l-.54,2.06h-4.13l-2.22,8.25h-2.06l2.22-8.25h-4.13Z" transform="translate(-6.53 -43.8)"/><path d="M359.17,164h10.32l-.55,2.06h-4.13l-2.22,8.25h-2.06l2.22-8.25h-4.12Z" transform="translate(-6.53 -43.8)"/><path d="M381.44,170.15l-.58,2.06h8.25l-.55,2.06H378.25L381,164h10.31l-.55,2.06h-8.25l-.54,2.06h6.18l-.54,2.07Z" transform="translate(-6.53 -43.8)"/><path d="M402.87,164h10.31l-.55,2.06h-8.25l-1.68,6.19H411l-.54,2.06H400.09Z" transform="translate(-6.53 -43.8)"/><path d="M426.77,164l-1.09,4.12h6.19L433,164H435l-2.77,10.31h-2.06l1.13-4.12h-6.19L424,174.27h-2.06L424.71,164Z" transform="translate(-6.53 -43.8)"/><path d="M443.79,174.27,446.56,164h2.06l4.22,7.31,2-7.31h2.06l-2.77,10.31H452l-4.29-7.09-1.9,7.09Z" transform="translate(-6.53 -43.8)"/><path d="M465.63,174.27,468.4,164h10.32l-2.78,10.31Zm8.8-2.06,1.68-6.19h-6.19l-1.68,6.19Z" transform="translate(-6.53 -43.8)"/><path d="M497.79,174.27H487.48L490.25,164h2.06l-2.22,8.25h6.19l.58-2.06h2.06Z" transform="translate(-6.53 -43.8)"/><path d="M509.32,174.27,512.1,164h10.31l-2.77,10.31Zm8.8-2.06L519.8,166h-6.19l-1.68,6.19Z" transform="translate(-6.53 -43.8)"/><path d="M541.48,174.27H531.17L533.94,164h10.31l-.54,2.06h-8.25l-1.68,6.19H540l.58-2.06h-2.06l.54-2.07h4.13Z" transform="translate(-6.53 -43.8)"/><path d="M557.14,174.27l1.13-4.12L555.79,164h2.58l1.61,3.61,3.57-3.61h2.55l-5.77,6.19-1.13,4.12Z" transform="translate(-6.53 -43.8)"/></svg>
