<svg id="Layer_1" data-name="Layer 1" xmlns="http://www.w3.org/2000/svg" viewBox="0 0 631.76 707.9"><defs><style>.cls-1{fill:#2355a1;}.cls-2{fill:#2555a1;}.cls-3{fill:#353e47;}.cls-4{fill:#343d47;}.cls-5{fill:#032a3c;}.cls-6{fill:#002a3c;}</style></defs><path class="cls-1" d="M264.49,411.37l51.38,29.18,51.37-29.18c0-98.89,0-272.3,0-332.83V3.9H264.49V411.37"/><path class="cls-2" d="M262.52,414.74l38.56,21.9,11,6.27c2,1.15,3.76,2,6.11.78,12.52-6.65,24.71-14,37-21l13.94-7.92a3.92,3.92,0,0,0,1.93-3.37V3.9A4,4,0,0,0,367.25,0H264.49a4,4,0,0,0-3.9,3.9V394.81c0,5.29-.1,10.6,0,15.89,0,.23,0,.45,0,.67,0,5,7.8,5,7.8,0V20.46c0-5.27.25-10.62,0-15.89,0-.23,0-.45,0-.67l-3.9,3.9H367.25l-3.9-3.9V302.07q0,49.43,0,98.84v10.46l1.93-3.36-44.92,25.51-6.45,3.67h3.94L266.46,408c-4.37-2.48-8.3,4.25-3.94,6.73Z"/><path class="cls-3" d="M546,126.23l-103.78-59a.41.41,0,0,0-.62.34c0,34.43,0,81.5,0,118.8a.39.39,0,0,0,.21.34l84.93,46.78a.42.42,0,0,1,.2.35V465.94a.4.4,0,0,1-.2.35S349,561.38,313.15,581.14c24.36,13.47,78.73,43.61,111.15,61.58L627.6,527.23a.39.39,0,0,0,.21-.35V172.94a.4.4,0,0,0-.21-.35Z"/><path class="cls-4" d="M548,122.86,450.52,67.51c-2.48-1.41-5.74-4.08-8.72-4.14a3.9,3.9,0,0,0-3.37,1.93c-1.26,2.1-.73,5.06-.73,7.43V180.88c0,2.56-.68,6.12,1.05,8.23a6.48,6.48,0,0,0,2.19,1.61l59.92,33,14.78,8.14c2.73,1.5,5.46,3.33,8.32,4.58,2.4,1.05-1.73-1.49-.91-2.52-.12.14,0,.75,0,.93-.15,1.78,0,3.63,0,5.42V464.49a3.93,3.93,0,0,0,0,1.28c.17.33,2.27-2.78,1.53-2.74-1.08.05-2.91,1.55-3.84,2.05q-26.49,14.18-53,28.37-40.44,21.66-80.84,43.38-33.27,17.88-66.5,35.88-4.63,2.52-9.25,5.06a3.94,3.94,0,0,0,0,6.74q54.53,30.16,109,60.4c2.61,1.45,4.29,2.17,7.09.59l5.31-3,11.25-6.39,24.55-14L521.57,592,611,541.16c6-3.43,12.31-6.65,18.22-10.35,3.13-2,2.52-5.34,2.52-8.5V178c0-3.51.67-7-2.84-9.13-14.45-8.73-29.4-16.71-44.08-25L548,122.86c-4.37-2.48-8.3,4.25-3.93,6.73l61.46,34.92,17,9.66a16.35,16.35,0,0,0,3,1.72c.73.2-1.32-4.24-1.61-2.67-.48,2.59,0,5.74,0,8.37V522.86a32.7,32.7,0,0,0,0,3.43c.23,2.19,3.13-2.95,1.25-2.15a52.79,52.79,0,0,0-5.23,3L609.6,533l-76.06,43.21L441.4,628.52l-19.06,10.83h3.93q-45.58-25.26-91.18-50.52l-20-11.06v6.74C334,574.11,353,564,372,553.73Q412.7,531.8,453.48,510q31.74-17,63.48-34c3.8-2,8-3.81,11.62-6.22,3.18-2.13,2.26-7.05,2.26-10.38V235.13c0-2-.34-3.8-2.28-5s-4.27-2.36-6.38-3.52l-65.6-36.13-10.48-5.77c-.45-.25-1.62-1.21-2.15-1.19,0,0-.14-.1-.16-.08s1.63,2.1,1.71,2.09,0-2.06,0-2.29v-8.92q0-36.89,0-73.75V70.15c0-.83.57-2.42-.33-.92l-3.36,1.93c-1.94,0-1.93-.85-1.18-.3a11.35,11.35,0,0,0,1.13.64l4.3,2.44,15.35,8.72,49.66,28.21,33,18.72C548.39,132.07,552.32,125.34,548,122.86Z"/><path class="cls-5" d="M91.25,123.11l97.32-55.29a1.05,1.05,0,0,1,1.57.93V186a1,1,0,0,1-.54.92l-84.29,46.43a1,1,0,0,0-.52.91V465.55a1.05,1.05,0,0,0,.56.93l147.13,81L424.3,642.72,316.41,704a1.09,1.09,0,0,1-1.08,0L4.47,527.42a1.07,1.07,0,0,1-.54-.92V173.32a1,1,0,0,1,.52-.91Z"/><path class="cls-6" d="M93.21,126.47l51.41-29.2,24-13.66,11.13-6.33,5.07-2.88c1.57-.89,3.69-2.65,5.46-2.94l-3-.4.6.36-1.79-2.33c-.13-.33.18-.38.11.1a8.06,8.06,0,0,0,0,1.3v114.1a5.43,5.43,0,0,0,0,1.14c0,.06,0,.17,0,.23s0,0,0,0q1.51-2.72.14-1.76l-1.26.7-35.2,19.39-30.94,17-10.46,5.77A41.31,41.31,0,0,0,103,230.3c-2.27,1.77-2.06,4.07-2.06,6.55V463c0,2.68-.14,5.1,2.49,6.88,4.82,3.26,10.42,5.74,15.51,8.54l36.39,20,80.43,44.31q18.76,10.34,37.52,20.74l118.66,65.74,30.45,16.86v-6.73l-29.88,17-54,30.66-18.95,10.77a30.78,30.78,0,0,0-4.48,2.54c-.6.51-1.65.35.81.35,4.25,0,1.4.23,1.21-.12-.6-1.07-3.86-2.19-4.89-2.77l-10.67-6.07-35.2-20L217.7,644.07l-55-31.25-55.37-31.45L58.69,553.74,22.87,533.39,12,527.22c-1.32-.74-3.71-2.81-5.25-3,0,0-.29-.2-.32-.18.64-.49.75,3.26,1.38,2.15.33-.6,0-2.34,0-3v-346c0-.72.4-3,0-3.59,0,0,0-.23,0-.24.82.35-2.66,2.65-.61,2a22.6,22.6,0,0,0,3.67-2.08l32.37-18.39,49.95-28.38c4.37-2.48.44-9.22-3.93-6.73L5.91,167.1c-2.7,1.53-5.62,2.72-5.88,6.29-.07,1,0,2,0,3V523.88c0,2.8-.07,5.22,2.69,7,1.58,1,3.32,1.89,5,2.82l26.76,15.2,43.3,24.6,53.48,30.38L187.64,636l53.12,30.17,42.57,24.19L309,704.9c1.41.81,2.81,1.73,4.28,2.43,3.62,1.75,6.88-1,9.94-2.71l45.78-26,48.91-27.78,8.35-4.75a3.93,3.93,0,0,0,0-6.73l-132.8-73.57q-24.11-13.35-48.23-26.69l-81.72-45-40-22-12.06-6.64c-1-.58-2.1-1.28-3.2-1.77-.23-.1-.52-.38-.78-.43-1.23-.21,2.43-.24,1.18,2.3.5-1,0-3.52,0-4.62v-224a10,10,0,0,0,0-2.19c0-.11,0-.28,0-.38,1.42,3.09-2.49,2.63-.77,2.09a8.2,8.2,0,0,0,1.3-.71l22.63-12.47,35.3-19.44,18.94-10.43c3.4-1.88,7.73-3.23,7.95-7.67.5-10.18,0-20.51,0-30.7V103c0-11.11.27-22.26,0-33.36-.06-2.49-1-5-3.71-5.68-3-.8-6.18,1.9-8.56,3.26l-9.39,5.33L131.13,96,89.28,119.74C84.92,122.22,88.84,129,93.21,126.47Z"/></svg>