<?xml version="1.0" encoding="UTF-8"?><svg id="a" xmlns="http://www.w3.org/2000/svg" viewBox="0 0 417.48 98.16"><g><path d="M74.71,0V39.55H13.18v26.37H0V0H74.71Zm-13.18,13.18H13.18v13.18H61.52V13.18Z"/><path d="M158.2,0V65.92H83.5V0h74.71Zm-13.18,13.18h-48.34V52.73h48.34V13.18Z"/><path d="M232.91,47.81V0h13.18V65.92h-13.71l-25.84-25.84-25.84,25.84h-13.71V0h13.18V47.81l26.37-26.37,26.37,26.37Z"/><path d="M329.59,13.18h-74.71V0h74.71V13.18Zm0,26.37h-74.71v-13.18h74.71v13.18Zm0,26.37h-74.71v-13.18h74.71v13.18Z"/><path d="M351.56,13.18v52.73h-13.18V0h74.71V39.55h-21.97l26.37,26.37h-18.63l-39.55-39.55h40.61V13.18h-48.34Z"/></g><g><path d="M42.49,98.16l.55-2.06h2l-.61-5.16-4.74,7.22h-2.35l6.9-10.31h2.06l1.35,10.31h-5.16Z"/><path d="M71.72,89.91h-8.25l-.55,2.06h8.25l-1.68,6.19h-10.31l.55-2.06h8.25l.58-2.06h-8.25l1.64-6.19h10.31l-.55,2.06Z"/><path d="M93.56,89.91h-8.25l-.55,2.06h8.25l-1.68,6.19h-10.31l.55-2.06h8.25l.58-2.06h-8.25l1.64-6.19h10.31l-.55,2.06Z"/><path d="M106.06,94.04l-.58,2.06h8.25l-.55,2.06h-10.31l2.77-10.31h10.31l-.55,2.06h-8.25l-.55,2.06h6.19l-.55,2.06h-6.19Z"/><path d="M127.49,87.85h10.31l-.55,2.06h-4.12l-2.22,8.25h-2.06l2.22-8.25h-4.12l.55-2.06Z"/><path d="M171.18,87.85h10.31l-.55,2.06h-4.12l-2.22,8.25h-2.06l2.22-8.25h-4.12l.55-2.06Z"/><path d="M193.45,94.04l-.58,2.06h8.25l-.55,2.06h-10.31l2.77-10.31h10.31l-.55,2.06h-8.25l-.55,2.06h6.19l-.55,2.06h-6.19Z"/><path d="M214.88,87.85h10.31l-.55,2.06h-8.25l-1.68,6.19h8.25l-.55,2.06h-10.31l2.77-10.31Z"/><path d="M238.78,87.85l-1.1,4.12h6.19l1.1-4.12h2.06l-2.77,10.31h-2.06l1.13-4.12h-6.19l-1.13,4.12h-2.06l2.77-10.31h2.06Z"/><path d="M255.8,98.16l2.77-10.31h2.06l4.22,7.32,1.97-7.32h2.06l-2.77,10.31h-2.06l-4.29-7.09-1.9,7.09h-2.06Z"/><path d="M277.64,98.16l2.77-10.31h10.31l-2.77,10.31h-10.31Zm8.8-2.06l1.68-6.19h-6.19l-1.68,6.19h6.19Z"/><path d="M309.8,98.16h-10.31l2.77-10.31h2.06l-2.22,8.25h6.19l.58-2.06h2.06l-1.13,4.12Z"/><path d="M321.33,98.16l2.77-10.31h10.31l-2.77,10.31h-10.31Zm8.8-2.06l1.68-6.19h-6.19l-1.68,6.19h6.19Z"/><path d="M353.49,98.16h-10.31l2.77-10.31h10.31l-.55,2.06h-8.25l-1.68,6.19h6.19l.58-2.06h-2.06l.55-2.06h4.12l-1.68,6.19Z"/><path d="M369.15,98.16l1.13-4.12-2.48-6.19h2.58l1.61,3.61,3.58-3.61h2.55l-5.77,6.19-1.13,4.12h-2.06Z"/></g></svg>